<svg width="12" height="12" viewBox="0 0 12 12" fill="none" xmlns="http://www.w3.org/2000/svg">
<path fill-rule="evenodd" clip-rule="evenodd" d="M6.42858 0.24C6.42858 0.107452 6.32112 0 6.18858 0H5.81143C5.67888 0 5.57143 0.107452 5.57143 0.24V2.56049C5.57143 2.82428 5.20772 2.89498 5.1089 2.6504L4.23963 0.498874C4.18998 0.375977 4.0501 0.316601 3.9272 0.366255L3.57752 0.507535C3.45463 0.557189 3.39525 0.697068 3.4449 0.819966L4.37163 3.11369C4.46957 3.35611 4.16427 3.55818 3.9794 3.37331L2.23011 1.62402C2.13638 1.53029 1.98442 1.53029 1.8907 1.62402L1.62402 1.8907C1.53029 1.98442 1.53029 2.13638 1.62402 2.23011L3.19487 3.80096C3.3824 3.98849 3.1721 4.29677 2.92908 4.19059L0.89337 3.30118C0.771906 3.24811 0.630426 3.30355 0.577357 3.42501L0.426362 3.77061C0.373295 3.89207 0.428739 4.03355 0.550201 4.08662L2.89595 5.1115C3.13426 5.21562 3.05992 5.57143 2.79986 5.57143H0.24C0.107452 5.57143 0 5.67888 0 5.81143V6.18858C0 6.32112 0.107452 6.42858 0.24 6.42858H2.79985C3.05991 6.42858 3.13424 6.78438 2.89594 6.88848L0.550204 7.9134C0.428742 7.96644 0.373298 8.10792 0.426365 8.22936L0.57736 8.57496C0.630426 8.69646 0.771912 8.7519 0.89337 8.6988L2.92908 7.80942C3.1721 7.70322 3.3824 8.0115 3.19487 8.19906L1.62402 9.76986C1.53029 9.86364 1.53029 10.0156 1.62402 10.1093L1.8907 10.376C1.98442 10.4697 2.13638 10.4697 2.23011 10.376L3.9794 8.62668C4.16428 8.44182 4.46957 8.6439 4.37163 8.8863L3.4449 11.18C3.39525 11.3029 3.45462 11.4428 3.57752 11.4925L3.9272 11.6338C4.0501 11.6834 4.18997 11.624 4.23963 11.5011L5.1089 9.34962C5.20772 9.105 5.57143 9.17574 5.57143 9.4395V11.76C5.57143 11.8925 5.67888 12 5.81143 12H6.18858C6.32112 12 6.42858 11.8925 6.42858 11.76V9.4395C6.42858 9.17574 6.7923 9.105 6.89112 9.34962L7.76034 11.5011C7.81002 11.624 7.94988 11.6834 8.07282 11.6338L8.4225 11.4925C8.54538 11.4428 8.60478 11.3029 8.5551 11.18L7.6284 8.8863C7.53042 8.6439 7.8357 8.44182 8.02062 8.62668L9.76986 10.376C9.86364 10.4697 10.0156 10.4697 10.1093 10.376L10.376 10.1093C10.4697 10.0156 10.4697 9.86364 10.376 9.76986L8.80512 8.19906C8.61762 8.0115 8.82792 7.70322 9.07092 7.80942L11.1066 8.6988C11.2281 8.7519 11.3696 8.69646 11.4226 8.57496L11.5736 8.22936C11.6267 8.10792 11.5712 7.96644 11.4498 7.9134L9.10404 6.88848C8.86578 6.78438 8.94006 6.42858 9.20016 6.42858H11.76C11.8925 6.42858 12 6.32112 12 6.18858V5.81143C12 5.67888 11.8925 5.57143 11.76 5.57143H9.20016C8.94006 5.57143 8.86572 5.21562 9.10404 5.1115L11.4498 4.08662C11.5712 4.03355 11.6267 3.89207 11.5736 3.77061L11.4226 3.42501C11.3696 3.30355 11.2281 3.24811 11.1066 3.30118L9.07092 4.19059C8.82792 4.29677 8.61762 3.98849 8.80512 3.80096L10.376 2.2301C10.4697 2.13638 10.4697 1.98442 10.376 1.8907L10.1093 1.62401C10.0156 1.53029 9.86364 1.53029 9.76986 1.62401L8.02062 3.3733C7.8357 3.55817 7.53042 3.3561 7.6284 3.11369L8.5551 0.819966C8.60478 0.697068 8.54538 0.557189 8.4225 0.507535L8.07282 0.366255C7.94988 0.316601 7.81002 0.375977 7.76034 0.498874L6.89112 2.6504C6.7923 2.89498 6.42858 2.82428 6.42858 2.56049V0.24Z" fill="#697565"/>
</svg>
